<svg width="36" height="36" viewBox="0 0 36 36" fill="none" xmlns="http://www.w3.org/2000/svg">
<g filter="url(#filter0_d_922_251)">
<path d="M33 16.984C33 8.16 25.832 1 17 1C8.168 1 1 8.16 1 16.984C1 21.844 3.208 26.224 6.664 29.164C6.696 29.196 6.728 29.196 6.728 29.228C7.016 29.452 7.304 29.676 7.624 29.9C7.784 29.996 7.912 30.122 8.072 30.25C10.7161 32.0427 13.8374 33.0007 17.032 33C20.2266 33.0007 23.3479 32.0427 25.992 30.25C26.152 30.154 26.28 30.028 26.44 29.93C26.728 29.708 27.048 29.484 27.336 29.26C27.368 29.228 27.4 29.228 27.4 29.196C30.792 26.222 33 21.844 33 16.984ZM17 30.986C13.992 30.986 11.24 30.026 8.968 28.428C9 28.172 9.064 27.918 9.128 27.662C9.31868 26.9682 9.59833 26.302 9.96 25.68C10.312 25.072 10.728 24.528 11.24 24.048C11.72 23.568 12.296 23.122 12.872 22.77C13.48 22.418 14.12 22.162 14.824 21.97C15.5335 21.7788 16.2652 21.6826 17 21.684C19.1813 21.6686 21.2825 22.5053 22.856 24.016C23.592 24.752 24.168 25.616 24.584 26.606C24.808 27.182 24.968 27.79 25.064 28.428C22.7024 30.0883 19.8869 30.9814 17 30.986ZM12.104 16.186C11.822 15.5404 11.6803 14.8424 11.688 14.138C11.688 13.436 11.816 12.732 12.104 12.092C12.392 11.452 12.776 10.878 13.256 10.398C13.736 9.918 14.312 9.536 14.952 9.248C15.592 8.96 16.296 8.832 17 8.832C17.736 8.832 18.408 8.96 19.048 9.248C19.688 9.536 20.264 9.92 20.744 10.398C21.224 10.878 21.608 11.454 21.896 12.092C22.184 12.732 22.312 13.436 22.312 14.138C22.312 14.874 22.184 15.546 21.896 16.184C21.6181 16.8145 21.2277 17.3892 20.744 17.88C20.2531 18.363 19.6784 18.7527 19.048 19.03C17.7257 19.5734 16.2423 19.5734 14.92 19.03C14.2896 18.7527 13.7149 18.363 13.224 17.88C12.7396 17.3964 12.3586 16.8194 12.104 16.184V16.186ZM26.952 26.798C26.952 26.734 26.92 26.702 26.92 26.638C26.6053 25.6368 26.1414 24.6888 25.544 23.826C24.946 22.9568 24.2112 22.1902 23.368 21.556C22.724 21.0716 22.026 20.6635 21.288 20.34C21.6238 20.1185 21.9349 19.8617 22.216 19.574C22.6931 19.103 23.1121 18.5766 23.464 18.006C24.1727 16.8416 24.5387 15.501 24.52 14.138C24.5299 13.129 24.3339 12.1286 23.944 11.198C23.559 10.3013 23.0049 9.48711 22.312 8.8C21.6201 8.12006 20.8058 7.57718 19.912 7.2C18.9798 6.81079 17.9781 6.61549 16.968 6.626C15.9577 6.61612 14.956 6.8121 14.024 7.202C13.1225 7.57837 12.3062 8.13277 11.624 8.832C10.9441 9.52317 10.4012 10.3368 10.024 11.23C9.6341 12.1606 9.4381 13.161 9.448 14.17C9.448 14.874 9.544 15.546 9.736 16.184C9.928 16.856 10.184 17.464 10.536 18.038C10.856 18.614 11.304 19.126 11.784 19.606C12.072 19.894 12.392 20.148 12.744 20.372C12.0037 20.7041 11.3054 21.1231 10.664 21.62C9.832 22.26 9.096 23.026 8.488 23.858C7.88452 24.7173 7.42016 25.6662 7.112 26.67C7.08 26.734 7.08 26.798 7.08 26.83C4.552 24.272 2.984 20.82 2.984 16.984C2.984 9.28 9.288 2.982 17 2.982C24.712 2.982 31.016 9.28 31.016 16.984C31.0118 20.6639 29.5506 24.1925 26.952 26.798Z" fill="#626262"/>
</g>
<defs>
<filter id="filter0_d_922_251" x="0" y="0" width="36" height="36" filterUnits="userSpaceOnUse" color-interpolation-filters="sRGB">
<feFlood flood-opacity="0" result="BackgroundImageFix"/>
<feColorMatrix in="SourceAlpha" type="matrix" values="0 0 0 0 0 0 0 0 0 0 0 0 0 0 0 0 0 0 127 0" result="hardAlpha"/>
<feOffset dx="1" dy="1"/>
<feGaussianBlur stdDeviation="1"/>
<feColorMatrix type="matrix" values="0 0 0 0 0 0 0 0 0 0 0 0 0 0 0 0 0 0 0.25 0"/>
<feBlend mode="normal" in2="BackgroundImageFix" result="effect1_dropShadow_922_251"/>
<feBlend mode="normal" in="SourceGraphic" in2="effect1_dropShadow_922_251" result="shape"/>
</filter>
</defs>
</svg>
