<svg width="36" height="36" viewBox="0 0 36 36" fill="none" xmlns="http://www.w3.org/2000/svg">
<g filter="url(#filter0_d_922_246)">
<path d="M17 31C13.287 31 9.72601 29.525 7.1005 26.8995C4.475 24.274 3 20.713 3 17C3 13.287 4.475 9.72601 7.1005 7.1005C9.72601 4.475 13.287 3 17 3C20.713 3 24.274 4.475 26.8995 7.1005C29.525 9.72601 31 13.287 31 17C31 20.713 29.525 24.274 26.8995 26.8995C24.274 29.525 20.713 31 17 31ZM17 33C21.2435 33 25.3131 31.3143 28.3137 28.3137C31.3143 25.3131 33 21.2435 33 17C33 12.7565 31.3143 8.68687 28.3137 5.68629C25.3131 2.68571 21.2435 1 17 1C12.7565 1 8.68687 2.68571 5.68629 5.68629C2.68571 8.68687 1 12.7565 1 17C1 21.2435 2.68571 25.3131 5.68629 28.3137C8.68687 31.3143 12.7565 33 17 33Z" fill="#626262"/>
<path d="M11.5099 12.572C11.5072 12.6366 11.5177 12.7011 11.5408 12.7614C11.5639 12.8218 11.5991 12.8768 11.6443 12.9231C11.6894 12.9694 11.7435 13.0059 11.8033 13.0305C11.8631 13.0551 11.9273 13.0671 11.9919 13.066H13.6419C13.9179 13.066 14.1379 12.84 14.1739 12.566C14.3539 11.254 15.2539 10.298 16.8579 10.298C18.2299 10.298 19.486 10.984 19.486 12.634C19.486 13.904 18.7379 14.488 17.5559 15.376C16.2099 16.354 15.1439 17.496 15.2199 19.35L15.2259 19.784C15.228 19.9152 15.2817 20.0403 15.3752 20.1324C15.4687 20.2244 15.5947 20.276 15.7259 20.276H17.3479C17.4806 20.276 17.6077 20.2233 17.7015 20.1296C17.7953 20.0358 17.8479 19.9086 17.8479 19.776V19.566C17.8479 18.13 18.3939 17.712 19.868 16.594C21.086 15.668 22.356 14.64 22.356 12.482C22.356 9.46 19.804 8 17.0099 8C14.4759 8 11.6999 9.18 11.5099 12.572ZM14.6239 24.098C14.6239 25.164 15.4739 25.952 16.6439 25.952C17.8619 25.952 18.7 25.164 18.7 24.098C18.7 22.994 17.86 22.218 16.6419 22.218C15.4739 22.218 14.6239 22.994 14.6239 24.098Z" fill="#626262"/>
</g>
<defs>
<filter id="filter0_d_922_246" x="0" y="0" width="36" height="36" filterUnits="userSpaceOnUse" color-interpolation-filters="sRGB">
<feFlood flood-opacity="0" result="BackgroundImageFix"/>
<feColorMatrix in="SourceAlpha" type="matrix" values="0 0 0 0 0 0 0 0 0 0 0 0 0 0 0 0 0 0 127 0" result="hardAlpha"/>
<feOffset dx="1" dy="1"/>
<feGaussianBlur stdDeviation="1"/>
<feColorMatrix type="matrix" values="0 0 0 0 0 0 0 0 0 0 0 0 0 0 0 0 0 0 0.15 0"/>
<feBlend mode="normal" in2="BackgroundImageFix" result="effect1_dropShadow_922_246"/>
<feBlend mode="normal" in="SourceGraphic" in2="effect1_dropShadow_922_246" result="shape"/>
</filter>
</defs>
</svg>
