<svg width="24" height="24" viewBox="0 0 24 24" fill="none" xmlns="http://www.w3.org/2000/svg">
<g filter="url(#filter0_d_1276_190)">
<path d="M20.6687 19.0994L16.907 15.3379C18.2937 13.5522 18.9476 11.3053 18.7358 9.05445C18.524 6.80361 17.4623 4.71812 15.7668 3.22254C14.0714 1.72696 11.8696 0.933728 9.60987 1.00434C7.35011 1.07495 5.20221 2.0041 3.60345 3.60261C2.00469 5.20113 1.07525 7.34884 1.00437 9.60851C0.933492 11.8682 1.72649 14.0699 3.22193 15.7655C4.71736 17.461 6.80281 18.523 9.0537 18.7351C11.3046 18.9472 13.5517 18.2935 15.3376 16.9071L19.0993 20.6686C19.202 20.773 19.3244 20.856 19.4594 20.9129C19.5944 20.9698 19.7393 20.9994 19.8858 21C20.0323 21.0006 20.1774 20.9722 20.3129 20.9164C20.4483 20.8606 20.5714 20.7786 20.675 20.675C20.7786 20.5714 20.8606 20.4484 20.9164 20.3129C20.9722 20.1775 21.0006 20.0323 21 19.8858C20.9994 19.7394 20.9698 19.5944 20.9129 19.4595C20.856 19.3245 20.773 19.2021 20.6686 19.0994H20.6687ZM3.23923 9.89709C3.23923 8.58029 3.62973 7.29307 4.36133 6.19819C5.09293 5.10331 6.13278 4.24996 7.34939 3.74604C8.566 3.24212 9.90472 3.11027 11.1963 3.36717C12.4878 3.62406 13.6742 4.25816 14.6053 5.18928C15.5365 6.1204 16.1706 7.30671 16.4275 8.59821C16.6844 9.88971 16.5526 11.2284 16.0486 12.4449C15.5447 13.6615 14.6913 14.7013 13.5964 15.4329C12.5015 16.1645 11.2142 16.5549 9.89733 16.5549C8.1321 16.553 6.43974 15.8509 5.19154 14.6027C3.94333 13.3546 3.24122 11.6623 3.23923 9.89709Z" fill="#626262"/>
</g>
<defs>
<filter id="filter0_d_1276_190" x="0" y="0" width="24" height="24" filterUnits="userSpaceOnUse" color-interpolation-filters="sRGB">
<feFlood flood-opacity="0" result="BackgroundImageFix"/>
<feColorMatrix in="SourceAlpha" type="matrix" values="0 0 0 0 0 0 0 0 0 0 0 0 0 0 0 0 0 0 127 0" result="hardAlpha"/>
<feOffset dx="1" dy="1"/>
<feGaussianBlur stdDeviation="1"/>
<feColorMatrix type="matrix" values="0 0 0 0 0 0 0 0 0 0 0 0 0 0 0 0 0 0 0.15 0"/>
<feBlend mode="normal" in2="BackgroundImageFix" result="effect1_dropShadow_1276_190"/>
<feBlend mode="normal" in="SourceGraphic" in2="effect1_dropShadow_1276_190" result="shape"/>
</filter>
</defs>
</svg>
