<svg width="36" height="36" viewBox="0 0 36 36" fill="none" xmlns="http://www.w3.org/2000/svg">
<g filter="url(#filter0_d_922_252)">
<path d="M31.1798 18.2283L32.9809 8.323C33.0119 8.15221 33.0051 7.97668 32.9608 7.80882C32.9166 7.64096 32.836 7.48488 32.7247 7.3516C32.6135 7.21833 32.4744 7.11111 32.3171 7.03754C32.1599 6.96397 31.9884 6.92583 31.8148 6.92584H7.91511L7.19156 2.94634C7.09247 2.40008 6.8047 1.90596 6.37846 1.55024C5.95222 1.19451 5.41459 0.999767 4.85941 1H2.18519C1.87085 1 1.5694 1.12487 1.34713 1.34713C1.12487 1.56939 1 1.87084 1 2.18517C1 2.49949 1.12487 2.80095 1.34713 3.02321C1.5694 3.24547 1.87085 3.37033 2.18519 3.37033H4.85926L8.92681 25.7408C8.34816 26.2504 7.92305 26.9113 7.69922 27.6491C7.47539 28.387 7.46171 29.1727 7.65972 29.9179C7.85773 30.6631 8.25958 31.3383 8.82015 31.8678C9.38071 32.3973 10.0778 32.7599 10.8331 32.9151C11.5884 33.0703 12.372 33.0119 13.0959 32.7463C13.8198 32.4808 14.4554 32.0187 14.9312 31.4119C15.407 30.8052 15.7042 30.0778 15.7895 29.3114C15.8747 28.5451 15.7446 27.7702 15.4138 27.0737H23.327C22.9418 27.8857 22.8309 28.8009 23.0108 29.6814C23.1908 30.5619 23.6519 31.3602 24.3247 31.956C24.9975 32.5519 25.8457 32.9131 26.7415 32.9852C27.6374 33.0574 28.5324 32.8366 29.2919 32.3562C30.0515 31.8757 30.6344 31.1615 30.953 30.3212C31.2715 29.4808 31.3085 28.5597 31.0583 27.6965C30.8082 26.8333 30.2844 26.0747 29.5658 25.5349C28.8473 24.995 27.9728 24.7032 27.0741 24.7033H11.1474L10.5009 21.1478H27.6816C28.5144 21.1482 29.3209 20.8561 29.9602 20.3225C30.5996 19.7889 31.0313 19.0477 31.1798 18.2283ZM13.4444 28.8514C13.4444 29.203 13.3402 29.5467 13.1448 29.8391C12.9495 30.1314 12.6718 30.3593 12.347 30.4939C12.0221 30.6284 11.6647 30.6636 11.3198 30.595C10.975 30.5264 10.6582 30.3571 10.4096 30.1085C10.161 29.8599 9.99164 29.5431 9.92305 29.1982C9.85445 28.8534 9.88966 28.496 10.0242 28.1711C10.1588 27.8463 10.3866 27.5686 10.679 27.3733C10.9713 27.1779 11.3151 27.0737 11.6667 27.0737C12.138 27.0742 12.5899 27.2616 12.9232 27.5949C13.2565 27.9282 13.4439 28.3801 13.4444 28.8514ZM28.8518 28.8514C28.8518 29.203 28.7476 29.5467 28.5522 29.8391C28.3569 30.1314 28.0792 30.3593 27.7544 30.4939C27.4296 30.6284 27.0721 30.6636 26.7272 30.595C26.3824 30.5264 26.0656 30.3571 25.817 30.1085C25.5684 29.8599 25.399 29.5431 25.3305 29.1982C25.2619 28.8534 25.2971 28.496 25.4316 28.1711C25.5662 27.8463 25.794 27.5686 26.0864 27.3733C26.3787 27.1779 26.7225 27.0737 27.0741 27.0737C27.5454 27.0742 27.9973 27.2616 28.3306 27.5949C28.6639 27.9282 28.8513 28.3801 28.8518 28.8514ZM8.34607 9.29617H30.3947L28.8477 17.8045C28.7982 18.0776 28.6543 18.3246 28.4412 18.5024C28.2281 18.6803 27.9593 18.7776 27.6818 18.7775H10.0699L8.34607 9.29617Z" fill="#626262"/>
</g>
<defs>
<filter id="filter0_d_922_252" x="0" y="0" width="36" height="36" filterUnits="userSpaceOnUse" color-interpolation-filters="sRGB">
<feFlood flood-opacity="0" result="BackgroundImageFix"/>
<feColorMatrix in="SourceAlpha" type="matrix" values="0 0 0 0 0 0 0 0 0 0 0 0 0 0 0 0 0 0 127 0" result="hardAlpha"/>
<feOffset dx="1" dy="1"/>
<feGaussianBlur stdDeviation="1"/>
<feColorMatrix type="matrix" values="0 0 0 0 0 0 0 0 0 0 0 0 0 0 0 0 0 0 0.15 0"/>
<feBlend mode="normal" in2="BackgroundImageFix" result="effect1_dropShadow_922_252"/>
<feBlend mode="normal" in="SourceGraphic" in2="effect1_dropShadow_922_252" result="shape"/>
</filter>
</defs>
</svg>
