<svg width="31" height="31" viewBox="0 0 31 31" fill="none" xmlns="http://www.w3.org/2000/svg">
<path d="M29.2367 16.6899L30.9815 7.09416C31.0116 6.9287 31.0049 6.75865 30.962 6.59604C30.9192 6.43343 30.8411 6.28223 30.7333 6.15312C30.6256 6.024 30.4908 5.92014 30.3385 5.84887C30.1861 5.77759 30.02 5.74065 29.8518 5.74065H6.69901L5.99807 1.88552C5.90208 1.35633 5.6233 0.877652 5.21038 0.533042C4.79746 0.188431 4.27663 -0.000226095 3.7388 2.03351e-07H1.14815C0.84364 2.03351e-07 0.551604 0.120964 0.336285 0.33628C0.120965 0.551596 0 0.843628 0 1.14813C0 1.45263 0.120965 1.74467 0.336285 1.95998C0.551604 2.1753 0.84364 2.29626 1.14815 2.29626H3.73866L7.6791 23.9677C7.11853 24.4614 6.7067 25.1016 6.48987 25.8164C6.27303 26.5312 6.25978 27.2923 6.4516 28.0142C6.64342 28.7361 7.03272 29.3903 7.57576 29.9032C8.11881 30.4161 8.7941 30.7674 9.5258 30.9178C10.2575 31.0681 11.0166 31.0115 11.7179 30.7543C12.4192 30.497 13.0349 30.0494 13.4958 29.4616C13.9568 28.8738 14.2447 28.1691 14.3273 27.4267C14.4099 26.6843 14.2838 25.9336 13.9633 25.2589H21.6292C21.2562 26.0455 21.1487 26.9321 21.323 27.7851C21.4973 28.6381 21.944 29.4114 22.5958 29.9887C23.2476 30.5659 24.0692 30.9158 24.9371 30.9857C25.8049 31.0556 26.672 30.8417 27.4078 30.3763C28.1436 29.9108 28.7083 29.219 29.0169 28.4049C29.3255 27.5908 29.3614 26.6985 29.119 25.8622C28.8767 25.026 28.3693 24.2911 27.6732 23.7681C26.977 23.2452 26.1299 22.9625 25.2593 22.9626H9.8303L9.20398 19.5182H25.8478C26.6546 19.5186 27.4358 19.2356 28.0552 18.7187C28.6746 18.2018 29.0928 17.4837 29.2367 16.6899V16.6899ZM12.0556 26.9811C12.0556 27.3217 11.9545 27.6547 11.7653 27.9379C11.5761 28.2211 11.3071 28.4418 10.9924 28.5722C10.6777 28.7025 10.3314 28.7366 9.99734 28.6702C9.66326 28.6037 9.35639 28.4397 9.11554 28.1988C8.87468 27.958 8.71065 27.6511 8.6442 27.3171C8.57775 26.983 8.61185 26.6367 8.74221 26.322C8.87256 26.0073 9.0933 25.7384 9.37652 25.5491C9.65973 25.3599 9.99271 25.2589 10.3333 25.2589C10.7899 25.2594 11.2277 25.441 11.5506 25.7638C11.8735 26.0867 12.0551 26.5245 12.0556 26.9811ZM26.9815 26.9811C26.9815 27.3217 26.8805 27.6547 26.6912 27.9379C26.502 28.2211 26.233 28.4418 25.9183 28.5722C25.6036 28.7025 25.2573 28.7366 24.9233 28.6702C24.5892 28.6037 24.2823 28.4397 24.0415 28.1988C23.8006 27.958 23.6366 27.6511 23.5701 27.3171C23.5037 26.983 23.5378 26.6367 23.6681 26.322C23.7985 26.0073 24.0192 25.7384 24.3024 25.5491C24.5857 25.3599 24.9186 25.2589 25.2593 25.2589C25.7159 25.2594 26.1536 25.441 26.4765 25.7638C26.7994 26.0867 26.981 26.5245 26.9815 26.9811V26.9811ZM7.11651 8.03691H28.4761L26.9775 16.2793C26.9295 16.5439 26.7901 16.7832 26.5837 16.9555C26.3772 17.1278 26.1168 17.2221 25.848 17.222H8.78649L7.11651 8.03691Z" fill="white"/>
</svg>
