<svg width="190" height="26" viewBox="0 0 190 26" fill="none" xmlns="http://www.w3.org/2000/svg">
<g filter="url(#filter0_d_922_262)">
<path d="M10.8405 22.2748C8.96975 22.2748 7.29124 21.838 5.80491 20.9644C4.3186 20.0666 3.1398 18.8654 2.2685 17.3608C1.42283 15.832 1 14.109 1 12.192C1 10.2749 1.46127 8.552 2.38381 7.0232C3.33199 5.4944 4.60049 4.2932 6.18931 3.4196C7.80376 2.52174 9.6104 2.0728 11.6093 2.0728C13.6081 2.0728 15.4019 2.52174 16.9908 3.4196C18.5796 4.2932 19.8353 5.4944 20.7578 7.0232C21.7059 8.552 22.1801 10.2749 22.1801 12.192V20.3092C22.1801 20.843 21.9879 21.292 21.6035 21.656C21.2447 21.9958 20.7834 22.1656 20.2197 22.1656C19.6559 22.1656 19.1818 21.9958 18.7974 21.656C18.4386 21.292 18.2593 20.843 18.2593 20.3092V18.9624C17.3623 19.9816 16.2733 20.7946 14.9919 21.4012C13.7363 21.9836 12.3525 22.2748 10.8405 22.2748ZM11.6093 18.9988C12.9162 18.9988 14.0822 18.7076 15.1072 18.1252C16.1322 17.5186 16.9395 16.7056 17.5289 15.6864C18.1184 14.643 18.413 13.4782 18.413 12.192C18.413 10.8816 18.1184 9.7168 17.5289 8.6976C16.9395 7.65414 16.1322 6.8412 15.1072 6.2588C14.0822 5.65214 12.9162 5.3488 11.6093 5.3488C10.3279 5.3488 9.16195 5.65214 8.11127 6.2588C7.08623 6.8412 6.26618 7.65414 5.65115 8.6976C5.06176 9.7168 4.76705 10.8816 4.76705 12.192C4.76705 13.4782 5.06176 14.643 5.65115 15.6864C6.26618 16.7056 7.08623 17.5186 8.11127 18.1252C9.16195 18.7076 10.3279 18.9988 11.6093 18.9988ZM28.861 22.1292C27.6566 22.1292 27.0544 21.559 27.0544 20.4184C27.0544 19.933 27.1697 19.5448 27.4003 19.2536L38.2787 5.64H28.4766C27.2722 5.64 26.67 5.06974 26.67 3.9292C26.67 2.78866 27.2722 2.2184 28.4766 2.2184H41.5844C42.7888 2.2184 43.3911 2.78866 43.3911 3.9292C43.3911 4.41454 43.2758 4.8028 43.0451 5.094L32.2053 18.7076H41.9688C43.1732 18.7076 43.7755 19.2778 43.7755 20.4184C43.7755 21.559 43.1732 22.1292 41.9688 22.1292H28.861ZM49.6197 22.1292C48.4153 22.1292 47.813 21.559 47.813 20.4184C47.813 19.933 47.9284 19.5448 48.159 19.2536L59.0373 5.64H49.2353C48.0309 5.64 47.4286 5.06974 47.4286 3.9292C47.4286 2.78866 48.0309 2.2184 49.2353 2.2184H62.3431C63.5476 2.2184 64.1497 2.78866 64.1497 3.9292C64.1497 4.41454 64.0344 4.8028 63.8038 5.094L52.9639 18.7076H62.7275C63.932 18.7076 64.5341 19.2778 64.5341 20.4184C64.5341 21.559 63.932 22.1292 62.7275 22.1292H49.6197ZM78.3738 22.3112C76.6056 22.3112 75.0168 21.9594 73.6073 21.2556C72.2235 20.5276 71.1216 19.472 70.3016 18.0888C69.5072 16.7056 69.11 15.007 69.11 12.9928V4.0384C69.11 3.50454 69.2893 3.06773 69.6481 2.728C70.0325 2.364 70.5066 2.182 71.0704 2.182C71.6341 2.182 72.0954 2.364 72.4542 2.728C72.8386 3.06773 73.0308 3.50454 73.0308 4.0384V12.9928C73.0308 15.0554 73.6073 16.5722 74.7605 17.5428C75.9393 18.4892 77.4 18.9624 79.1426 18.9624C80.2445 18.9624 81.2183 18.7562 82.064 18.3436C82.9352 17.931 83.6272 17.373 84.1397 16.6692C84.6523 15.9654 84.9085 15.1768 84.9085 14.3032V4.0384C84.9085 3.48026 85.0878 3.03134 85.4466 2.6916C85.831 2.35186 86.3052 2.182 86.8689 2.182C87.4584 2.182 87.9324 2.35186 88.2912 2.6916C88.65 3.03134 88.8293 3.48026 88.8293 4.0384V20.2728C88.8293 20.8066 88.65 21.2556 88.2912 21.6196C87.9324 21.9594 87.4584 22.1292 86.8689 22.1292C86.3052 22.1292 85.831 21.9594 85.4466 21.6196C85.0878 21.2556 84.9085 20.8066 84.9085 20.2728V19.8724C84.1141 20.6246 83.1531 21.2192 82.0256 21.656C80.898 22.0928 79.6808 22.3112 78.3738 22.3112ZM97.6565 22.1292C96.3752 22.1292 95.7346 21.5226 95.7346 20.3092V4.0384C95.7346 2.82506 96.3752 2.2184 97.6565 2.2184C98.9379 2.2184 99.5785 2.82506 99.5785 4.0384V4.73C100.347 3.88066 101.283 3.21334 102.385 2.728C103.512 2.24266 104.729 2 106.036 2C107.574 2 108.714 2.24266 109.457 2.728C110.226 3.18906 110.521 3.7472 110.341 4.4024C110.214 4.912 109.957 5.25174 109.572 5.4216C109.188 5.5672 108.74 5.59146 108.227 5.4944C106.587 5.17894 105.114 5.15466 103.807 5.4216C102.5 5.68854 101.462 6.186 100.693 6.914C99.95 7.642 99.5785 8.56414 99.5785 9.6804V20.3092C99.5785 21.5226 98.9379 22.1292 97.6565 22.1292ZM122.422 22.2748C120.346 22.2748 118.515 21.8502 116.925 21.0008C115.337 20.1272 114.081 18.9382 113.158 17.4336C112.262 15.9048 111.813 14.1576 111.813 12.192C111.813 10.2021 112.262 8.45494 113.158 6.9504C114.081 5.4216 115.337 4.23254 116.925 3.3832C118.515 2.5096 120.346 2.0728 122.422 2.0728C124.473 2.0728 126.292 2.5096 127.881 3.3832C129.47 4.23254 130.713 5.4216 131.609 6.9504C132.532 8.45494 132.993 10.2021 132.993 12.192C132.993 14.1576 132.545 15.9048 131.648 17.4336C130.751 18.9382 129.508 20.1272 127.919 21.0008C126.331 21.8502 124.498 22.2748 122.422 22.2748ZM122.422 18.9988C123.755 18.9988 124.934 18.7076 125.959 18.1252C126.984 17.5428 127.778 16.742 128.342 15.7228C128.932 14.7036 129.226 13.5266 129.226 12.192C129.226 10.8574 128.932 9.6804 128.342 8.6612C127.778 7.61774 126.984 6.8048 125.959 6.2224C124.934 5.64 123.755 5.3488 122.422 5.3488C121.09 5.3488 119.912 5.64 118.886 6.2224C117.861 6.8048 117.054 7.61774 116.464 8.6612C115.875 9.6804 115.58 10.8574 115.58 12.192C115.58 13.5266 115.875 14.7036 116.464 15.7228C117.054 16.742 117.861 17.5428 118.886 18.1252C119.912 18.7076 121.09 18.9988 122.422 18.9988ZM139.943 22.7116C139.226 22.7116 138.597 22.469 138.059 21.9836C137.548 21.474 137.291 20.8794 137.291 20.2C137.291 19.4962 137.548 18.9018 138.059 18.4164C138.597 17.9068 139.226 17.652 139.943 17.652C140.686 17.652 141.315 17.9068 141.826 18.4164C142.339 18.9018 142.595 19.4962 142.595 20.2C142.595 20.8794 142.339 21.474 141.826 21.9836C141.315 22.469 140.686 22.7116 139.943 22.7116ZM149.91 22.1292C148.629 22.1292 147.988 21.5226 147.988 20.3092V4.0384C147.988 2.82506 148.629 2.2184 149.91 2.2184C151.191 2.2184 151.832 2.82506 151.832 4.0384V4.73C152.6 3.88066 153.536 3.21334 154.638 2.728C155.766 2.24266 156.982 2 158.289 2C159.827 2 160.968 2.24266 161.71 2.728C162.479 3.18906 162.775 3.7472 162.595 4.4024C162.467 4.912 162.21 5.25174 161.826 5.4216C161.441 5.5672 160.993 5.59146 160.48 5.4944C158.841 5.17894 157.367 5.15466 156.06 5.4216C154.753 5.68854 153.715 6.186 152.946 6.914C152.204 7.642 151.832 8.56414 151.832 9.6804V20.3092C151.832 21.5226 151.191 22.1292 149.91 22.1292ZM175.523 22.3112C173.755 22.3112 172.166 21.9594 170.757 21.2556C169.373 20.5276 168.27 19.472 167.451 18.0888C166.656 16.7056 166.259 15.007 166.259 12.9928V4.0384C166.259 3.50454 166.438 3.06773 166.798 2.728C167.182 2.364 167.655 2.182 168.22 2.182C168.783 2.182 169.245 2.364 169.604 2.728C169.988 3.06773 170.18 3.50454 170.18 4.0384V12.9928C170.18 15.0554 170.757 16.5722 171.91 17.5428C173.088 18.4892 174.549 18.9624 176.292 18.9624C177.394 18.9624 178.368 18.7562 179.214 18.3436C180.084 17.931 180.776 17.373 181.289 16.6692C181.801 15.9654 182.058 15.1768 182.058 14.3032V4.0384C182.058 3.48026 182.237 3.03134 182.596 2.6916C182.981 2.35186 183.454 2.182 184.018 2.182C184.607 2.182 185.082 2.35186 185.441 2.6916C185.799 3.03134 185.979 3.48026 185.979 4.0384V20.2728C185.979 20.8066 185.799 21.2556 185.441 21.6196C185.082 21.9594 184.607 22.1292 184.018 22.1292C183.454 22.1292 182.981 21.9594 182.596 21.6196C182.237 21.2556 182.058 20.8066 182.058 20.2728V19.8724C181.263 20.6246 180.302 21.2192 179.175 21.656C178.047 22.0928 176.83 22.3112 175.523 22.3112Z" fill="#FA7B05"/>
</g>
<defs>
<filter id="filter0_d_922_262" x="0" y="1" width="188.979" height="24.7114" filterUnits="userSpaceOnUse" color-interpolation-filters="sRGB">
<feFlood flood-opacity="0" result="BackgroundImageFix"/>
<feColorMatrix in="SourceAlpha" type="matrix" values="0 0 0 0 0 0 0 0 0 0 0 0 0 0 0 0 0 0 127 0" result="hardAlpha"/>
<feOffset dx="1" dy="1"/>
<feGaussianBlur stdDeviation="1"/>
<feColorMatrix type="matrix" values="0 0 0 0 0 0 0 0 0 0 0 0 0 0 0 0 0 0 0.15 0"/>
<feBlend mode="normal" in2="BackgroundImageFix" result="effect1_dropShadow_922_262"/>
<feBlend mode="normal" in="SourceGraphic" in2="effect1_dropShadow_922_262" result="shape"/>
</filter>
</defs>
</svg>
